<svg width="27" height="25" viewBox="0 0 27 25" fill="none" xmlns="http://www.w3.org/2000/svg">
<path d="M9.5 13.5001C9.5 13.7967 9.41203 14.0867 9.2472 14.3334C9.08238 14.5801 8.84811 14.7723 8.57403 14.8859C8.29994 14.9994 7.99834 15.0291 7.70736 14.9712C7.41639 14.9134 7.14912 14.7705 6.93934 14.5607C6.72956 14.3509 6.5867 14.0837 6.52882 13.7927C6.47094 13.5017 6.50065 13.2001 6.61418 12.926C6.72771 12.6519 6.91997 12.4177 7.16665 12.2528C7.41332 12.088 7.70333 12.0001 8 12.0001C8.39782 12.0001 8.77936 12.1581 9.06066 12.4394C9.34196 12.7207 9.5 13.1022 9.5 13.5001ZM19 12.0001C18.7033 12.0001 18.4133 12.088 18.1666 12.2528C17.92 12.4177 17.7277 12.6519 17.6142 12.926C17.5007 13.2001 17.4709 13.5017 17.5288 13.7927C17.5867 14.0837 17.7296 14.3509 17.9393 14.5607C18.1491 14.7705 18.4164 14.9134 18.7074 14.9712C18.9983 15.0291 19.2999 14.9994 19.574 14.8859C19.8481 14.7723 20.0824 14.5801 20.2472 14.3334C20.412 14.0867 20.5 13.7967 20.5 13.5001C20.5 13.1022 20.342 12.7207 20.0607 12.4394C19.7794 12.1581 19.3978 12.0001 19 12.0001ZM26.5 2.00005V13.0001C26.5 19.6163 20.6688 25.0001 13.5 25.0001C6.33125 25.0001 0.5 19.6163 0.5 13.0001V2.00005C0.500183 1.60462 0.617581 1.21812 0.837356 0.889395C1.05713 0.560667 1.36942 0.304465 1.73476 0.153166C2.1001 0.00186744 2.50209 -0.0377375 2.88993 0.0393563C3.27777 0.11645 3.63405 0.306782 3.91375 0.5863C3.93125 0.6038 3.94625 0.62005 3.96125 0.63755L6.125 3.12505C8.33743 1.7389 10.8955 1.00375 13.5063 1.00375C16.117 1.00375 18.6751 1.7389 20.8875 3.12505L23.0387 0.63755C23.0537 0.62005 23.0688 0.6038 23.0863 0.5863C23.366 0.306782 23.7222 0.11645 24.1101 0.0393563C24.4979 -0.0377375 24.8999 0.00186744 25.2652 0.153166C25.6306 0.304465 25.9429 0.560667 26.1626 0.889395C26.3824 1.21812 26.4998 1.60462 26.5 2.00005ZM24.5 2.00005L21.805 5.10005C21.6401 5.29077 21.4093 5.41219 21.1588 5.44C20.9082 5.46782 20.6564 5.39997 20.4538 5.25005C19.8437 4.79892 19.189 4.41148 18.5 4.0938V7.00005C18.5 7.26527 18.3946 7.51962 18.2071 7.70716C18.0196 7.89469 17.7652 8.00005 17.5 8.00005C17.2348 8.00005 16.9804 7.89469 16.7929 7.70716C16.6054 7.51962 16.5 7.26527 16.5 7.00005V3.3813C15.8439 3.21254 15.175 3.09881 14.5 3.0413V7.00005C14.5 7.26527 14.3946 7.51962 14.2071 7.70716C14.0196 7.89469 13.7652 8.00005 13.5 8.00005C13.2348 8.00005 12.9804 7.89469 12.7929 7.70716C12.6054 7.51962 12.5 7.26527 12.5 7.00005V3.0413C11.825 3.09881 11.1561 3.21254 10.5 3.3813V7.00005C10.5 7.26527 10.3946 7.51962 10.2071 7.70716C10.0196 7.89469 9.76522 8.00005 9.5 8.00005C9.23478 8.00005 8.98043 7.89469 8.79289 7.70716C8.60536 7.51962 8.5 7.26527 8.5 7.00005V4.0938C7.81097 4.41148 7.1563 4.79892 6.54625 5.25005C6.34403 5.40041 6.09249 5.46888 5.84196 5.44177C5.59143 5.41465 5.36037 5.29395 5.195 5.1038L2.5 2.00005V13.0001C2.5 18.2076 6.90125 22.5001 12.5 22.9588V20.4138L10.7925 18.7063C10.6997 18.6134 10.6261 18.5031 10.5758 18.3817C10.5256 18.2604 10.4998 18.1303 10.4999 17.999C10.4999 17.8676 10.5259 17.7376 10.5762 17.6163C10.6265 17.495 10.7002 17.3848 10.7931 17.2919C10.9808 17.1045 11.2352 16.9992 11.5004 16.9993C11.6318 16.9994 11.7618 17.0253 11.8831 17.0756C12.0045 17.1259 12.1147 17.1996 12.2075 17.2926L13.5 18.5851L14.7925 17.2926C14.8853 17.1996 14.9955 17.1259 15.1169 17.0756C15.2382 17.0253 15.3682 16.9994 15.4996 16.9993C15.6309 16.9993 15.761 17.0251 15.8823 17.0753C16.0037 17.1255 16.114 17.1991 16.2069 17.2919C16.2998 17.3848 16.3735 17.495 16.4238 17.6163C16.4741 17.7376 16.5001 17.8676 16.5001 17.999C16.5002 18.1303 16.4744 18.2604 16.4242 18.3817C16.3739 18.5031 16.3003 18.6134 16.2075 18.7063L14.5 20.4138V22.9588C20.0988 22.4976 24.5 18.2088 24.5 13.0001V2.00005Z" fill="#CCCCCC"/>
</svg>
